<?xml version="1.0" standalone="no"?>
<!DOCTYPE svg PUBLIC "-//W3C//DTD SVG 20010904//EN"
 "http://www.w3.org/TR/2001/REC-SVG-20010904/DTD/svg10.dtd">
<svg version="1.0" xmlns="http://www.w3.org/2000/svg"
 width="256.000000pt" height="256.000000pt" viewBox="0 0 256.000000 256.000000"
 preserveAspectRatio="xMidYMid meet">
<metadata>
Created by potrace 1.11, written by Peter Selinger 2001-2013
</metadata>
<g transform="translate(0.000000,256.000000) scale(0.100000,-0.100000)"
fill="#000000" stroke="none">
<path d="M0 2160 l0 -400 45 0 45 0 0 -70 0 -70 -45 0 -45 0 0 -270 0 -270
115 0 115 0 0 -135 0 -135 65 0 65 0 0 -70 0 -70 -180 0 -180 0 0 -335 0 -335
1280 0 1280 0 0 1280 0 1280 -1280 0 -1280 0 0 -400z m750 -335 l0 -65 70 0
70 0 0 -70 0 -70 65 0 65 0 0 70 0 70 65 0 65 0 0 -135 0 -135 -265 0 -265 0
0 200 0 200 65 0 65 0 0 -65z m-260 -1220 l0 -65 -65 0 -65 0 0 65 0 65 65 0
65 0 0 -65z"/>
</g>
</svg>
